<svg width="259" height="72" viewBox="0 0 259 72" fill="none" xmlns="http://www.w3.org/2000/svg">
<g clip-path="url(#clip0_98_104)">
<path d="M36.0262 72C16.1611 72 0 55.8506 0 36C0 35.6906 0.253309 35.4375 0.562909 35.4375C0.872509 35.4375 1.12582 35.6906 1.12582 36C1.12582 55.2319 16.7803 70.875 36.0262 70.875C51.3485 70.875 65.106 60.6319 69.4742 45.9619C69.5643 45.6637 69.8739 45.495 70.1722 45.585C70.4706 45.675 70.6394 45.9844 70.5494 46.2825C66.0405 61.425 51.8383 71.9944 36.0262 71.9944V72Z" fill="#4EBBC3"/>
<path d="M71.4894 36.5625C71.1798 36.5625 70.9265 36.3094 70.9265 36C70.9265 16.7681 55.272 1.125 36.0262 1.125C20.7038 1.125 6.95194 11.3681 2.57814 26.0381C2.48808 26.3363 2.17848 26.505 1.88013 26.415C1.58179 26.325 1.41292 26.0156 1.50298 25.7175C6.01189 10.575 20.2084 0 36.0262 0C55.8912 0 72.0524 16.1494 72.0524 36C72.0524 36.3094 71.799 36.5625 71.4894 36.5625Z" fill="#4EBBC3"/>
<path d="M41.0922 26.4375H30.9599C30.6503 26.4375 30.397 26.1844 30.397 25.875C30.397 25.5656 30.6503 25.3125 30.9599 25.3125H41.0922C41.4018 25.3125 41.6552 25.5656 41.6552 25.875C41.6552 26.1844 41.4018 26.4375 41.0922 26.4375Z" fill="#4EBBC3"/>
<path d="M41.0922 46.6875H30.9599C30.6503 46.6875 30.397 46.4344 30.397 46.125C30.397 45.8156 30.6503 45.5625 30.9599 45.5625H41.0922C41.4018 45.5625 41.6552 45.8156 41.6552 46.125C41.6552 46.4344 41.4018 46.6875 41.0922 46.6875Z" fill="#4EBBC3"/>
<path d="M27.256 57.7294C25.9613 57.7294 24.6891 57.3131 23.614 56.5087C21.4805 54.9112 20.6474 52.245 21.4918 49.7194C22.3362 47.1937 24.599 45.5625 27.2672 45.5625H30.9655C31.2751 45.5625 31.5285 45.8156 31.5285 46.125C31.5285 46.4344 31.2751 46.6875 30.9655 46.6875H27.2672C24.6328 46.6875 23.1073 48.4369 22.5613 50.0737C22.0153 51.7106 22.1842 54.0281 24.2894 55.6031C25.6573 56.6325 27.4361 56.88 29.0348 56.2669C30.6334 55.6537 31.793 54.2869 32.1308 52.6106L33.1159 47.6944C33.1778 47.3906 33.4705 47.1881 33.7801 47.2556C34.0841 47.3175 34.2811 47.61 34.2192 47.9194L33.2341 52.8356C32.8231 54.8944 31.4046 56.5706 29.4401 57.3244C28.7308 57.5944 27.9934 57.7294 27.2616 57.7294H27.256Z" fill="#4EBBC3"/>
<path d="M44.7907 26.4375H41.0924C40.7828 26.4375 40.5295 26.1844 40.5295 25.875C40.5295 25.5656 40.7828 25.3125 41.0924 25.3125H44.7907C47.4251 25.3125 48.9506 23.5631 49.4966 21.9206C50.0426 20.2838 49.8738 17.9662 47.7685 16.3912C46.395 15.3619 44.6218 15.1144 43.0232 15.7275C41.4245 16.3406 40.2649 17.7075 39.9272 19.3837L38.9421 24.3C38.8802 24.6038 38.5874 24.8063 38.2778 24.7388C37.9739 24.6769 37.7769 24.3844 37.8388 24.075L38.8239 19.1588C39.2348 17.1 40.6533 15.4181 42.6179 14.67C44.5824 13.9219 46.7609 14.2256 48.4383 15.4856C50.5718 17.0831 51.4049 19.7494 50.5605 22.275C49.7161 24.8006 47.4533 26.4319 44.7851 26.4319L44.7907 26.4375Z" fill="#4EBBC3"/>
<path d="M62.483 46.6875H41.0924C40.7829 46.6875 40.5295 46.4344 40.5295 46.125C40.5295 45.8156 40.7829 45.5625 41.0924 45.5625H62.483C67.4535 45.5625 70.9266 41.6306 70.9266 36C70.9266 35.6906 71.1799 35.4375 71.4895 35.4375C71.7991 35.4375 72.0524 35.6906 72.0524 36C72.0524 42.2944 68.1177 46.6875 62.483 46.6875Z" fill="#4EBBC3"/>
<path d="M34.3374 45C34.3037 45 34.2643 45 34.2249 44.9888C33.9209 44.9269 33.7239 44.6344 33.7858 44.325L35.4745 35.8875C35.5364 35.5838 35.8292 35.3813 36.1388 35.4488C36.4427 35.5106 36.6397 35.8031 36.5778 36.1125L34.8891 44.55C34.8384 44.82 34.602 45 34.3374 45Z" fill="#4EBBC3"/>
<path d="M0.562909 36.5625C0.253309 36.5625 0 36.3094 0 36C0 29.7056 3.93473 25.3125 9.56945 25.3125H30.96C31.2696 25.3125 31.5229 25.5656 31.5229 25.875C31.5229 26.1844 31.2696 26.4375 30.96 26.4375H9.56945C4.59897 26.4375 1.12582 30.3694 1.12582 36C1.12582 36.3094 0.872509 36.5625 0.562909 36.5625Z" fill="#4EBBC3"/>
<path d="M36.0262 36.5625C35.9868 36.5625 35.953 36.5625 35.9136 36.5513C35.6096 36.4894 35.4126 36.1969 35.4745 35.8875L37.1632 27.45C37.2252 27.1463 37.5179 26.9438 37.8275 27.0113C38.1314 27.0731 38.3285 27.3656 38.2665 27.675L36.5778 36.1125C36.5272 36.3825 36.2907 36.5625 36.0262 36.5625Z" fill="#4EBBC3"/>
<path d="M86.8569 19.3162C86.795 17.7469 86.7275 16.1437 86.6543 14.5069C86.9752 14.5575 87.2848 14.6025 87.5831 14.6362C87.8814 14.6756 88.1798 14.6925 88.4725 14.6925C88.7652 14.6925 89.0692 14.6756 89.3619 14.6362C89.6602 14.5969 89.9698 14.5575 90.2907 14.5069C90.2175 16.1381 90.15 17.7412 90.088 19.3162C90.0261 20.8856 89.9923 22.4887 89.9923 24.1256C89.9923 27.2419 90.0036 29.9475 90.0318 32.2369C90.0543 34.5262 90.0824 36.5738 90.1049 38.3794C91.8612 38.3794 93.5499 38.3625 95.1599 38.3231C96.7698 38.2837 98.5035 38.1431 100.361 37.8956C100.237 38.34 100.175 38.7112 100.175 39.0094C100.175 39.285 100.237 39.6169 100.361 40.0106C99.224 39.96 98.0813 39.9375 96.9443 39.9375H90.088C88.9847 39.9375 87.842 39.96 86.6543 40.0106C86.7275 38.475 86.795 36.9169 86.8569 35.3306C86.9189 33.7444 86.9526 32.1356 86.9526 30.5044V24.12C86.9526 22.4887 86.9189 20.8856 86.8569 19.3106V19.3162Z" fill="#28352C"/>
<path d="M132.092 26.5725C132.092 23.0569 132.081 20.3456 132.053 18.4444C132.03 16.5375 131.969 15.2269 131.867 14.5069C132.137 14.5575 132.402 14.6025 132.65 14.6363C132.897 14.6756 133.145 14.6925 133.393 14.6925C133.714 14.6925 134.085 14.6306 134.507 14.5069C134.434 15.3731 134.361 16.4081 134.282 17.6063C134.209 18.8044 134.147 20.0925 134.096 21.465C134.046 22.8375 133.995 24.2494 133.95 25.695C133.899 27.1406 133.86 28.5469 133.837 29.9081C133.815 31.5675 133.556 33.0525 133.078 34.3631C132.593 35.6737 131.907 36.7875 131.017 37.7044C130.128 38.6213 129.03 39.3131 127.73 39.7856C126.43 40.2525 124.938 40.4888 123.255 40.4888C119.54 40.4888 116.838 39.645 115.154 37.9631C113.471 36.2813 112.627 33.6206 112.627 29.9813C112.627 28.8169 112.655 27.7875 112.723 26.8819C112.785 25.9763 112.818 25.0594 112.818 24.1144C112.818 22.0331 112.796 20.1938 112.745 18.585C112.695 16.9763 112.644 15.615 112.599 14.5013C112.897 14.5519 113.218 14.5969 113.567 14.6306C113.916 14.67 114.237 14.6869 114.535 14.6869C114.805 14.6869 115.076 14.67 115.335 14.6306C115.594 14.5913 115.858 14.5519 116.134 14.5013C116.083 15.0469 116.033 15.7556 115.988 16.6331C115.937 17.5106 115.886 18.5063 115.841 19.62C115.791 20.7338 115.751 21.9319 115.729 23.22C115.706 24.5081 115.689 25.8413 115.689 27.2306C115.689 28.0744 115.701 28.9463 115.729 29.8463C115.751 30.7519 115.841 31.6294 115.988 32.4844C116.134 33.3394 116.376 34.155 116.714 34.9369C117.051 35.7188 117.524 36.3994 118.144 36.9788C118.763 37.5581 119.545 38.0194 120.485 38.3513C121.425 38.6831 122.591 38.8519 123.975 38.8519C125.36 38.8519 126.486 38.655 127.409 38.2556C128.338 37.8619 129.098 37.3388 129.694 36.6975C130.291 36.0563 130.753 35.3138 131.085 34.47C131.417 33.6263 131.659 32.7488 131.811 31.8319C131.957 30.915 132.047 29.9981 132.07 29.0869C132.092 28.17 132.109 27.3319 132.109 26.5613L132.092 26.5725Z" fill="#28352C"/>
<path d="M166.998 39.1388C166.514 39.375 165.934 39.5831 165.253 39.7687C164.572 39.9544 163.812 40.1231 162.968 40.2694C162.123 40.4156 161.245 40.4944 160.328 40.4944C158.369 40.4944 156.562 40.2131 154.901 39.6562C153.241 39.0994 151.811 38.25 150.612 37.1138C149.413 35.9775 148.467 34.5825 147.786 32.9344C147.105 31.2919 146.767 29.4131 146.767 27.3094C146.767 25.2056 147.105 23.3325 147.786 21.6844C148.467 20.0419 149.419 18.6469 150.646 17.5106C151.873 16.3744 153.342 15.5081 155.048 14.9119C156.759 14.3156 158.639 14.0231 160.694 14.0231C162.326 14.0231 163.818 14.1919 165.169 14.5237C166.52 14.8556 167.713 15.2606 168.755 15.7275C168.558 16.0762 168.394 16.5431 168.27 17.1394C168.147 17.7356 168.045 18.2306 167.972 18.6244L167.747 18.6975C167.499 18.3994 167.15 18.0675 166.706 17.6962C166.261 17.325 165.737 16.965 165.146 16.6219C164.55 16.2731 163.885 15.9862 163.142 15.75C162.399 15.5137 161.583 15.3956 160.688 15.3956C159.224 15.3956 157.868 15.6319 156.618 16.0987C155.369 16.5712 154.277 17.2912 153.348 18.27C152.419 19.2487 151.693 20.4863 151.175 21.9825C150.657 23.4788 150.392 25.2562 150.392 27.3094C150.392 29.3625 150.651 31.14 151.175 32.6362C151.698 34.1325 152.419 35.37 153.348 36.3488C154.277 37.3275 155.363 38.0531 156.618 38.52C157.868 38.9925 159.224 39.2231 160.688 39.2231C161.577 39.2231 162.405 39.1106 163.159 38.8912C163.914 38.6662 164.606 38.4019 165.242 38.0925C165.872 37.7831 166.441 37.4513 166.953 37.0913C167.46 36.7313 167.888 36.4163 168.237 36.1463L168.383 36.2925L168.051 38.4806C167.826 38.6775 167.477 38.8969 166.993 39.1331L166.998 39.1388Z" fill="#28352C"/>
<path d="M180.739 19.26C180.677 17.6737 180.609 16.0931 180.536 14.5069C181.651 14.5575 182.76 14.6025 183.863 14.6362C184.966 14.6756 186.075 14.6925 187.19 14.6925C188.304 14.6925 189.408 14.6756 190.494 14.6362C191.586 14.5969 192.684 14.5575 193.798 14.5069C193.725 14.8781 193.686 15.2494 193.686 15.6206C193.686 15.9919 193.725 16.3631 193.798 16.7344C193.005 16.6837 192.278 16.6331 191.625 16.5881C190.972 16.5431 190.274 16.4869 189.543 16.4419C188.811 16.3912 188.012 16.3462 187.145 16.3125C186.278 16.2731 185.236 16.2562 184.026 16.2562C184.004 17.0494 183.97 17.8031 183.93 18.5231C183.891 19.2431 183.874 20.0587 183.874 20.9756C183.874 21.9431 183.88 22.8825 183.891 23.7994C183.902 24.7162 183.908 25.4081 183.908 25.8806C185 25.8806 185.974 25.8694 186.841 25.8412C187.708 25.8187 188.501 25.785 189.216 25.7456C189.937 25.7062 190.595 25.6725 191.203 25.6331C191.811 25.5937 192.385 25.5544 192.931 25.5037C192.858 25.875 192.819 26.2575 192.819 26.6569C192.819 27.0281 192.858 27.3994 192.931 27.7706C192.284 27.6975 191.535 27.6356 190.685 27.585C189.83 27.5344 188.974 27.5062 188.124 27.4894C187.269 27.4781 186.464 27.4669 185.709 27.45C184.955 27.4387 184.353 27.4331 183.908 27.4331C183.908 27.6581 183.902 27.9 183.891 28.1587C183.88 28.4175 183.874 28.7494 183.874 29.1431V32.8162C183.874 34.2281 183.88 35.3925 183.891 36.3037C183.902 37.2206 183.919 37.9125 183.947 38.385H186.548C187.488 38.385 188.411 38.3681 189.318 38.3287C190.224 38.2894 191.074 38.2444 191.879 38.1825C192.684 38.1206 193.382 38.0306 193.978 37.9012C193.928 38.0756 193.9 38.2669 193.883 38.475C193.871 38.6887 193.866 38.88 193.866 39.0487C193.866 39.4425 193.905 39.7687 193.978 40.0162C192.864 39.9656 191.755 39.9431 190.652 39.9431H183.908C182.793 39.9431 181.668 39.9656 180.525 40.0162C180.598 38.43 180.666 36.855 180.728 35.28C180.789 33.7106 180.823 32.1075 180.823 30.4706V24.0862C180.823 22.455 180.789 20.8462 180.728 19.26H180.739Z" fill="#28352C"/>
<path d="M218.431 30.375C215.211 26.9212 211.992 23.49 208.772 20.0756C208.749 20.7675 208.721 21.6956 208.698 22.86C208.676 24.0244 208.659 25.605 208.659 27.6131C208.659 28.1306 208.665 28.7775 208.676 29.5425C208.687 30.3131 208.698 31.1119 208.715 31.9556C208.727 32.7994 208.744 33.6487 208.772 34.515C208.794 35.3812 208.822 36.1856 208.845 36.9281C208.867 37.6706 208.896 38.3175 208.918 38.8744C208.941 39.4312 208.969 39.8081 208.991 40.005C208.592 39.9544 208.164 39.9319 207.691 39.9319C207.196 39.9319 206.74 39.9544 206.317 40.005C206.368 39.7575 206.424 39.3019 206.486 38.6325C206.548 37.9631 206.604 37.1644 206.655 36.2362C206.706 35.3081 206.762 34.3012 206.824 33.21C206.886 32.1187 206.937 31.0331 206.97 29.9419C207.01 28.8506 207.038 27.7875 207.066 26.7469C207.089 25.7062 207.105 24.7781 207.105 23.9625C207.105 21.5887 207.1 19.5469 207.089 17.8369C207.077 16.1269 207.044 14.8556 206.993 14.0119H207.59C209.098 15.6431 210.714 17.3981 212.436 19.2656C214.159 21.1331 215.864 22.9781 217.564 24.795C219.259 26.6119 220.869 28.3331 222.394 29.9531C223.92 31.5731 225.248 32.9512 226.385 34.0931V29.0419C226.385 26.4431 226.368 23.9119 226.329 21.4481C226.289 18.9844 226.211 16.6669 226.087 14.4844C226.582 14.6081 227.004 14.67 227.348 14.67C227.646 14.67 228.04 14.6081 228.535 14.4844C228.485 15.03 228.428 15.8456 228.367 16.9369C228.305 18.0281 228.243 19.1869 228.181 20.4244C228.119 21.6619 228.063 22.8769 228.012 24.0637C227.961 25.2506 227.939 26.2069 227.939 26.9212V29.1487C227.939 29.9925 227.944 30.87 227.956 31.7869C227.967 32.7037 227.978 33.6262 227.995 34.5544C228.006 35.4825 228.018 36.3487 228.034 37.1531C228.046 37.9575 228.051 38.655 228.051 39.2512V40.4775H227.533C224.685 37.1869 221.651 33.8119 218.431 30.3581V30.375Z" fill="#28352C"/>
<path d="M247.781 16.4363C247.134 16.4363 246.464 16.4419 245.755 16.4531C245.051 16.4644 244.342 16.4925 243.638 16.5263C242.935 16.5656 242.254 16.605 241.595 16.6556C240.936 16.7063 240.351 16.7681 239.833 16.8413C239.957 16.3969 240.019 15.9975 240.019 15.6544C240.019 15.3844 239.957 14.9963 239.833 14.5013C241.465 14.5519 243.064 14.5969 244.623 14.6306C246.183 14.67 247.781 14.6869 249.414 14.6869C251.046 14.6869 252.645 14.67 254.204 14.6306C255.763 14.5913 257.362 14.5519 258.994 14.5013C258.871 14.9963 258.809 15.39 258.809 15.6881C258.809 16.0088 258.871 16.3913 258.994 16.8413C258.477 16.7681 257.885 16.7063 257.233 16.6556C256.574 16.605 255.893 16.56 255.189 16.5263C254.486 16.4869 253.776 16.4644 253.073 16.4531C252.369 16.4419 251.694 16.4363 251.046 16.4363C250.973 18.9844 250.934 21.5494 250.934 24.12V30.5044C250.934 32.1356 250.962 33.7444 251.029 35.3306C251.091 36.9169 251.159 38.475 251.232 40.0106C250.663 39.96 250.055 39.9375 249.414 39.9375C248.772 39.9375 248.164 39.96 247.596 40.0106C247.669 38.475 247.736 36.9169 247.798 35.3306C247.86 33.7444 247.894 32.1356 247.894 30.5044V24.12C247.894 21.5438 247.854 18.9844 247.781 16.4363Z" fill="#28352C"/>
<path d="M86.8062 53.6569C86.8062 51.1706 88.5906 49.0781 91.3038 49.0781C94.017 49.0781 95.7733 50.985 95.7733 53.5444C95.7733 56.1038 94.0001 58.1344 91.2925 58.1344C88.5849 58.1344 86.8062 56.2162 86.8062 53.6569ZM91.7485 57.3188C92.8631 57.3188 94.3379 56.565 94.3379 54.2362C94.3379 51.75 92.6041 49.8937 90.8309 49.8937C89.7164 49.8937 88.2528 50.6475 88.2528 52.965C88.2528 55.4794 89.9866 57.3244 91.7485 57.3244V57.3188Z" fill="#4EBBC3"/>
<path d="M105.557 55.5019L104.74 54.3487L103.823 55.5019C103.181 56.3062 102.607 57.1219 102.174 57.9375H101.008L104.329 53.7806L101.098 49.275H102.917C103.451 50.0906 103.997 50.895 104.577 51.7106L105.236 52.6387L105.979 51.7106C106.621 50.895 107.195 50.0906 107.628 49.275H108.793L105.658 53.2125L109.041 57.9431H107.223C106.688 57.1275 106.142 56.3231 105.562 55.5075L105.557 55.5019Z" fill="#4EBBC3"/>
<path d="M117.789 55.3781V54.09L114.58 49.275H116.398C116.894 50.0906 117.625 51.2325 118.194 52.0987L118.864 53.1394L119.596 52.0987C120.175 51.255 120.935 50.0962 121.352 49.275H122.506L119.275 54.0169V55.3781C119.275 56.3794 119.325 57.2344 119.359 57.9375H117.699C117.738 57.2344 117.783 56.3794 117.783 55.3781H117.789Z" fill="#4EBBC3"/>
<path d="M127.437 53.7637C127.437 51.525 129.086 49.0725 132.464 49.0725C133.95 49.0725 135.126 49.545 135.025 49.8262L134.755 50.6419C134.456 51.5306 134.209 50.0625 131.771 50.0625C129.666 50.0625 128.811 51.1762 128.811 53.0437C128.811 55.8281 130.708 57.3356 132.402 57.3356C133.291 57.3356 133.618 56.9025 133.618 56.1825C133.618 55.5525 133.578 54.7987 133.483 54.1012H135.093C135.031 55.1137 135.019 56.1656 135.177 57.1219C134.496 57.5325 133.06 58.1231 132.762 58.1231C129.812 58.1231 127.437 56.6606 127.437 53.7525V53.7637Z" fill="#4EBBC3"/>
<path d="M144.403 57.8981C143.587 57.8981 142.506 57.8981 141.403 57.9375C141.442 57.2344 141.476 56.3794 141.476 55.3781V51.84C141.476 50.8387 141.436 49.9837 141.403 49.2806C142.506 49.32 143.57 49.32 144.324 49.32C145.016 49.32 145.895 49.32 146.885 49.2581C147.009 49.2469 147.032 49.2806 147.009 49.3931L146.846 50.0625C146.835 50.1244 146.795 50.1356 146.66 50.1244C145.506 50.0231 144.566 49.9612 143.626 49.9612C143.204 49.9612 143.007 50.0962 142.996 50.4337C142.973 50.9681 142.956 51.435 142.956 51.93V52.8356C142.956 53.1562 143.119 53.2181 143.367 53.2181H143.592C144.656 53.2181 145.253 53.2069 145.945 53.1169C146.047 53.1056 146.092 53.1675 146.047 53.28L145.821 53.8481C145.771 53.9831 145.709 53.9831 145.551 53.9719C145.078 53.9325 144.228 53.8875 143.485 53.8875H143.373C143.125 53.8875 142.962 53.9494 142.962 54.27V55.2994C142.962 55.7944 142.962 56.25 143.001 56.7844C143.024 57.1162 143.21 57.2569 143.632 57.2569C144.634 57.2569 145.759 57.1725 146.913 57.0712C147.049 57.06 147.11 57.0712 147.099 57.1331L146.953 57.8362C146.93 57.9487 146.93 57.9825 146.829 57.9712C145.838 57.9094 145.157 57.9094 144.403 57.9094V57.8981Z" fill="#4EBBC3"/>
<path d="M153.224 54.0619V53.1731C153.224 51.4294 153.201 50.4281 153.089 49.4381C153.077 49.3256 153.1 49.275 153.201 49.275H153.584C153.708 49.275 153.792 49.2862 153.882 49.3875L159.804 55.5525V53.1506C159.804 51.8625 159.793 50.8106 159.731 49.275H160.71C160.648 50.8106 160.637 51.8625 160.637 53.1506V54.0394C160.637 55.7831 160.66 56.7844 160.772 57.7744C160.784 57.8869 160.761 57.9375 160.66 57.9375H160.277C160.153 57.9375 160.069 57.9262 159.979 57.825L154.057 51.66V54.0619C154.057 55.35 154.068 56.4019 154.13 57.9375H153.151C153.212 56.4019 153.224 55.35 153.224 54.0619Z" fill="#4EBBC3"/>
<path d="M176.106 55.3781V50.4619C176.106 50.1919 176.005 50.0513 175.785 50.0513C175.093 50.0513 174.136 50.0737 173.134 50.1637C172.999 50.175 172.948 50.1525 172.971 50.0625L173.145 49.3819C173.168 49.2806 173.196 49.2356 173.32 49.2469C174.125 49.2694 174.485 49.2694 176.343 49.2694H177.603C179.422 49.2694 179.833 49.2694 180.638 49.2469C180.761 49.2356 180.784 49.2694 180.761 49.3819L180.626 50.085C180.615 50.1469 180.576 50.1694 180.441 50.1581C179.439 50.0737 178.572 50.0456 177.913 50.0456C177.688 50.0456 177.592 50.1806 177.592 50.4562V55.3725C177.592 56.3737 177.677 57.2287 177.705 57.9319H176.01C176.05 57.2287 176.112 56.3737 176.112 55.3725L176.106 55.3781Z" fill="#4EBBC3"/>
<path d="M186.537 55.3781V51.84C186.537 50.8388 186.486 49.9837 186.452 49.2806H188.113C188.074 49.9837 188.029 50.8388 188.029 51.84V52.9762C188.029 53.2856 188.338 53.2856 188.597 53.2856H191.744C192.003 53.2856 192.312 53.2856 192.312 52.9762V51.84C192.312 50.8388 192.262 49.9837 192.228 49.2806H193.888C193.849 49.9837 193.804 50.8388 193.804 51.84V55.3781C193.804 56.3794 193.855 57.2344 193.888 57.9375H192.228C192.267 57.2344 192.312 56.3794 192.312 55.3781V54.3769C192.312 54.0675 192.003 54.0675 191.744 54.0675H188.597C188.338 54.0675 188.029 54.0675 188.029 54.3769V55.3781C188.029 56.3794 188.079 57.2344 188.113 57.9375H186.452C186.492 57.2344 186.537 56.3794 186.537 55.3781Z" fill="#4EBBC3"/>
<path d="M203.413 57.8981C202.596 57.8981 201.516 57.8981 200.412 57.9375C200.452 57.2344 200.486 56.3794 200.486 55.3781V51.84C200.486 50.8387 200.446 49.9837 200.412 49.2806C201.516 49.32 202.58 49.32 203.334 49.32C204.026 49.32 204.904 49.32 205.895 49.2581C206.019 49.2469 206.041 49.2806 206.019 49.3931L205.856 50.0625C205.844 50.1244 205.805 50.1356 205.67 50.1244C204.516 50.0231 203.576 49.9612 202.636 49.9612C202.214 49.9612 202.017 50.0962 202.005 50.4337C201.983 50.9681 201.966 51.435 201.966 51.93V52.8356C201.966 53.1562 202.129 53.2181 202.377 53.2181H202.602C203.666 53.2181 204.263 53.2069 204.955 53.1169C205.056 53.1056 205.101 53.1675 205.056 53.28L204.831 53.8481C204.781 53.9831 204.719 53.9831 204.561 53.9719C204.088 53.9325 203.238 53.8875 202.495 53.8875H202.383C202.135 53.8875 201.972 53.9494 201.972 54.27V55.2994C201.972 55.7944 201.972 56.25 202.011 56.7844C202.034 57.1162 202.219 57.2569 202.641 57.2569C203.643 57.2569 204.769 57.1725 205.923 57.0712C206.058 57.06 206.12 57.0712 206.109 57.1331L205.963 57.8362C205.94 57.9487 205.94 57.9825 205.839 57.9712C204.848 57.9094 204.167 57.9094 203.413 57.9094V57.8981Z" fill="#4EBBC3"/>
<path d="M212.172 55.3781V51.84C212.172 50.8387 212.132 49.9837 212.098 49.2806C213.202 49.32 213.832 49.2581 215.009 49.2581C216.878 49.2581 218.127 50.0231 218.127 51.5475C218.127 52.9312 217.052 53.64 215.921 53.7525C216.303 54 216.776 54.5175 217.21 55.0294L218.459 56.4919C219.056 57.1837 219.388 57.5719 219.771 57.9544H217.925L215.656 55.1081C214.874 54.1181 214.541 54.0337 213.652 54.0169V55.3894C213.652 56.3906 213.714 57.2456 213.736 57.9487H212.087C212.127 57.2456 212.16 56.3906 212.16 55.3894L212.172 55.3781ZM214.012 53.4319C215.859 53.4319 216.562 53.1112 216.562 51.8737C216.562 50.5519 215.718 49.8937 214.581 49.8937C213.86 49.8937 213.652 50.0569 213.652 50.625V53.4375H214.012V53.4319Z" fill="#4EBBC3"/>
<path d="M225.89 55.8956L227.86 51.4294C228.271 50.49 228.44 49.8431 228.49 49.41C228.502 49.2862 229.38 49.14 229.419 49.2244L232.279 55.9069C232.577 56.5875 232.887 57.2569 233.219 57.9375H231.558L230.68 55.8956C230.545 55.5862 230.348 55.575 229.976 55.575H227.46C227.089 55.575 226.88 55.575 226.757 55.8956L225.963 57.9375H224.95C225.271 57.2569 225.591 56.5762 225.89 55.8956ZM227.562 54.8831H229.892C230.067 54.8831 230.252 54.8606 230.179 54.6862L228.732 51.2212L227.28 54.6862C227.207 54.8606 227.393 54.8831 227.567 54.8831H227.562Z" fill="#4EBBC3"/>
<path d="M239.214 55.3781V51.84C239.214 50.8387 239.174 49.9837 239.14 49.2806C240.244 49.32 240.874 49.2581 242 49.2581C243.919 49.2581 245.507 49.9612 245.507 51.9075C245.507 54.1125 243.441 55.0406 240.7 54.63V55.3837C240.7 56.385 240.762 57.24 240.784 57.9431H239.135C239.174 57.24 239.208 56.385 239.208 55.3837L239.214 55.3781ZM243.908 52.1831C243.908 50.7094 242.968 49.8937 241.628 49.8937C240.908 49.8937 240.7 50.0569 240.7 50.625V54.0169C242.805 54.315 243.908 53.8087 243.908 52.1831Z" fill="#4EBBC3"/>
<path d="M254.136 55.3781V54.09L250.928 49.275H252.746C253.241 50.0906 253.973 51.2325 254.542 52.0987L255.211 53.1394L255.943 52.0987C256.523 51.255 257.283 50.0962 257.7 49.275H258.854L255.622 54.0169V55.3781C255.622 56.3794 255.673 57.2344 255.707 57.9375H254.046C254.086 57.2344 254.131 56.3794 254.131 55.3781H254.136Z" fill="#4EBBC3"/>
</g>
<defs>
<clipPath id="clip0_98_104">
<rect width="259" height="72" fill="white"/>
</clipPath>
</defs>
</svg>
